<svg version="1.1" id="Layer_1" xmlns="http://www.w3.org/2000/svg" xmlns:xlink="http://www.w3.org/1999/xlink" x="0px" y="0px"
	 width="40" viewBox="0 0 225 225" enable-background="new 0 0 225 225" xml:space="preserve">
<path fill="#F8FCF7" opacity="1.000000" stroke="none" 
	d="
M152.000000,226.000000 
	C101.333336,226.000000 51.166672,226.000000 1.000007,226.000000 
	C1.000005,151.000000 1.000005,76.000015 1.000002,1.000017 
	C75.999992,1.000011 150.999985,1.000011 225.999969,1.000006 
	C225.999985,75.999985 225.999985,150.999969 226.000000,225.999969 
	C201.500000,226.000000 177.000000,226.000000 152.000000,226.000000 
M169.090729,115.977684 
	C163.384613,116.027481 157.678482,116.077278 151.131134,116.370659 
	C151.045029,118.182571 150.889221,119.994278 150.883606,121.806435 
	C150.827713,139.857483 150.796600,157.908600 150.024872,176.042679 
	C148.509354,176.640274 146.955902,177.829803 145.484680,177.735550 
	C138.120041,177.263779 130.643173,177.113388 123.449661,175.650528 
	C94.092072,169.680527 72.897758,144.885254 71.664017,115.695518 
	C70.459167,87.189507 89.618858,61.474987 118.376785,52.797489 
	C128.911636,49.618671 139.595871,49.465420 150.423996,50.883644 
	C150.423996,43.144478 150.423996,35.767155 150.423996,27.873880 
	C147.390686,28.179720 144.822250,28.654665 142.254105,28.653276 
	C136.671173,28.650259 130.962555,27.601357 125.536041,28.451965 
	C118.028847,29.628725 110.463737,31.467613 103.392685,34.225910 
	C61.011284,50.758163 38.861496,95.842270 51.933262,138.282867 
	C64.664383,179.617477 109.609261,206.561081 152.663162,198.420761 
	C158.871185,197.246979 164.843414,194.826035 171.181366,192.077087 
	C171.200592,168.003555 171.238007,143.929977 171.186951,119.856590 
	C171.184311,118.614265 170.424866,117.373550 169.090729,115.977684 
z"/>
<path fill="#C6223F" opacity="1.000000" stroke="none" 
	d="
M170.924759,192.982269 
	C164.843414,194.826035 158.871185,197.246979 152.663162,198.420761 
	C109.609261,206.561081 64.664383,179.617477 51.933262,138.282867 
	C38.861496,95.842270 61.011284,50.758163 103.392685,34.225910 
	C110.463737,31.467613 118.028847,29.628725 125.536041,28.451965 
	C130.962555,27.601357 136.671173,28.650259 142.254105,28.653276 
	C144.822250,28.654665 147.390686,28.179720 150.423996,27.873880 
	C150.423996,35.767155 150.423996,43.144478 150.423996,50.883644 
	C139.595871,49.465420 128.911636,49.618671 118.376785,52.797489 
	C89.618858,61.474987 70.459167,87.189507 71.664017,115.695518 
	C72.897758,144.885254 94.092072,169.680527 123.449661,175.650528 
	C130.643173,177.113388 138.120041,177.263779 145.484680,177.735550 
	C146.955902,177.829803 148.509354,176.640274 150.738983,175.758362 
	C151.635834,174.012283 151.975433,172.550751 151.977554,171.088745 
	C152.004211,152.768219 151.982040,134.447647 151.972382,116.127075 
	C157.678482,116.077278 163.384613,116.027481 169.547913,116.514816 
	C170.002747,140.625336 169.980896,164.198761 170.038040,187.772003 
	C170.042252,189.509460 170.615860,191.245544 170.924759,192.982269 
z"/>
<path fill="#B80737" opacity="1.000000" stroke="none" 
	d="
M171.053070,192.529678 
	C170.615860,191.245544 170.042252,189.509460 170.038040,187.772003 
	C169.980896,164.198761 170.002747,140.625336 170.011429,116.592010 
	C170.424866,117.373550 171.184311,118.614265 171.186951,119.856590 
	C171.238007,143.929977 171.200592,168.003555 171.053070,192.529678 
z"/>
<path fill="#AF0931" opacity="1.000000" stroke="none" 
	d="
M151.551758,116.248871 
	C151.982040,134.447647 152.004211,152.768219 151.977554,171.088745 
	C151.975433,172.550751 151.635834,174.012283 151.105789,175.716858 
	C150.796600,157.908600 150.827713,139.857483 150.883606,121.806435 
	C150.889221,119.994278 151.045029,118.182571 151.551758,116.248871 
z"/>
</svg>